<svg width="96" height="96" viewBox="0 0 96 96" fill="none" xmlns="http://www.w3.org/2000/svg">
<path d="M80.9984 22.8676C80.9969 22.8241 80.9804 22.7821 80.9759 22.7401C80.9669 22.6696 80.9579 22.6006 80.9384 22.5331C80.9204 22.4701 80.8964 22.4101 80.8709 22.3501C80.8439 22.2871 80.8169 22.2271 80.7824 22.1686C80.7479 22.1101 80.7089 22.0591 80.6669 22.0051C80.6264 21.9541 80.5844 21.9046 80.5379 21.8581C80.4869 21.8086 80.4329 21.7666 80.3759 21.7261C80.3444 21.7036 80.3189 21.6736 80.2859 21.6526C80.2619 21.6376 80.2349 21.6331 80.2109 21.6196C80.1839 21.6046 80.1629 21.5836 80.1344 21.5701L47.1344 6.14111C46.7324 5.95361 46.2659 5.95361 45.8639 6.14111L12.8639 21.5701C12.8369 21.5836 12.8144 21.6046 12.7889 21.6196C12.7649 21.6331 12.7379 21.6376 12.7139 21.6526C12.6809 21.6736 12.6554 21.7036 12.6239 21.7261C12.5669 21.7681 12.5114 21.8101 12.4619 21.8581C12.4139 21.9046 12.3734 21.9541 12.3329 22.0051C12.2909 22.0576 12.2519 22.1101 12.2174 22.1686C12.1829 22.2271 12.1559 22.2871 12.1289 22.3501C12.1034 22.4101 12.0794 22.4701 12.0614 22.5331C12.0434 22.6006 12.0329 22.6696 12.0239 22.7401C12.0179 22.7836 12.0029 22.8241 12.0014 22.8676C11.9999 22.8916 12.0074 22.9126 12.0074 22.9366C12.0074 22.9606 11.9999 22.9831 12.0014 23.0056L13.7384 57.2896C13.7609 57.7471 13.9919 58.1686 14.3654 58.4356L28.9079 68.8021C28.8719 68.8816 28.8179 68.9476 28.7954 69.0346C28.4879 70.2196 28.3319 71.4121 28.3319 72.5761C28.3319 81.3571 36.4769 88.5001 46.4894 88.5001C56.5019 88.5001 64.6469 81.3556 64.6469 72.5761C64.6469 71.4196 64.4924 70.2346 64.1894 69.0511C64.1669 68.9626 64.1114 68.8951 64.0754 68.8156L78.6359 58.4356C79.0094 58.1686 79.2404 57.7471 79.2629 57.2896L80.9999 23.0056C81.0014 22.9816 80.9939 22.9591 80.9939 22.9366C80.9924 22.9126 80.9999 22.8916 80.9984 22.8676ZM46.4999 9.15611L76.2434 23.0626L46.4999 40.0591L16.7564 23.0626L46.4999 9.15611ZM15.1364 25.5931L30.4184 34.3261L44.9999 42.6571V76.5901L16.6979 56.4151L15.1364 25.5931ZM61.6454 72.5761C61.6454 79.7026 54.8459 85.5001 46.4879 85.5001C38.1299 85.5001 31.3304 79.7026 31.3304 72.5761C31.3304 71.9506 31.4099 71.3116 31.5254 70.6681L45.6284 80.7226C45.6554 80.7421 45.6884 80.7496 45.7169 80.7661C45.7499 80.7871 45.7769 80.8156 45.8129 80.8336C45.8369 80.8456 45.8654 80.8411 45.8894 80.8516C46.0844 80.9401 46.2899 81.0001 46.4999 81.0001C46.7099 81.0001 46.9154 80.9401 47.1104 80.8516C47.1344 80.8411 47.1629 80.8456 47.1869 80.8336C47.2229 80.8156 47.2499 80.7871 47.2829 80.7661C47.3114 80.7481 47.3429 80.7421 47.3714 80.7226L61.4549 70.6831C61.5674 71.3221 61.6454 71.9566 61.6454 72.5761ZM76.3019 56.4136L47.9999 76.5901V42.6571L62.5799 34.3261L77.8619 25.5931L76.3019 56.4136Z" fill="url(#paint0_linear_506_8)"/>
<path d="M67.5 22.95L46.5 34.5L25.5 22.95L46.5 13.5L67.5 22.95Z" fill="url(#paint1_linear_506_8)"/>
<path d="M75 31.5L73.86 53.715L51 69.885V45.105L75 31.5Z" fill="url(#paint2_linear_506_8)"/>
<path d="M42 45.105V69.885L19.14 53.715L18 31.5L42 45.105Z" fill="url(#paint3_linear_506_8)"/>
<defs>
<linearGradient id="paint0_linear_506_8" x1="46.4999" y1="6.00011" x2="46.4999" y2="88.5001" gradientUnits="userSpaceOnUse">
<stop stop-color="#233B55"/>
<stop offset="1" stop-color="#FFCE45"/>
</linearGradient>
<linearGradient id="paint1_linear_506_8" x1="46.5" y1="13.5" x2="46.5" y2="34.5" gradientUnits="userSpaceOnUse">
<stop stop-color="#233B55"/>
<stop offset="1" stop-color="#FFCE45"/>
</linearGradient>
<linearGradient id="paint2_linear_506_8" x1="63" y1="31.5" x2="63" y2="69.885" gradientUnits="userSpaceOnUse">
<stop stop-color="#233B55"/>
<stop offset="1" stop-color="#FFCE45"/>
</linearGradient>
<linearGradient id="paint3_linear_506_8" x1="30" y1="31.5" x2="30" y2="69.885" gradientUnits="userSpaceOnUse">
<stop stop-color="#233B55"/>
<stop offset="1" stop-color="#FFCE45"/>
</linearGradient>
</defs>
</svg>
